solid Default
  facet normal 0.000000e+00 1.000000e+00 0.000000e+00
    outer loop
      vertex -2.227499e+00 3.464985e+00 1.683000e+01
      vertex -2.227499e+00 3.464985e+00 2.227500e+01
      vertex -7.425005e-01 3.464985e+00 1.683000e+01
    endloop
  endfacet
  facet normal 0.000000e+00 1.000000e+00 0.000000e+00
    outer loop
      vertex -7.425005e-01 3.464985e+00 1.683000e+01
      vertex -2.227499e+00 3.464985e+00 2.227500e+01
      vertex -7.425005e-01 3.464985e+00 2.227500e+01
    endloop
  endfacet
  facet normal -1.000000e+00 0.000000e+00 0.000000e+00
    outer loop
      vertex -2.227499e+00 2.722515e+00 1.683000e+01
      vertex -2.227499e+00 2.722515e+00 2.227500e+01
      vertex -2.227499e+00 3.464985e+00 1.683000e+01
    endloop
  endfacet
  facet normal -1.000000e+00 0.000000e+00 0.000000e+00
    outer loop
      vertex -2.227499e+00 3.464985e+00 1.683000e+01
      vertex -2.227499e+00 2.722515e+00 2.227500e+01
      vertex -2.227499e+00 3.464985e+00 2.227500e+01
    endloop
  endfacet
  facet normal 1.000000e+00 0.000000e+00 0.000000e+00
    outer loop
      vertex -7.425005e-01 3.464985e+00 1.683000e+01
      vertex -7.425005e-01 3.464985e+00 2.227500e+01
      vertex -7.425005e-01 2.722515e+00 1.683000e+01
    endloop
  endfacet
  facet normal 1.000000e+00 0.000000e+00 0.000000e+00
    outer loop
      vertex -7.425005e-01 2.722515e+00 1.683000e+01
      vertex -7.425005e-01 3.464985e+00 2.227500e+01
      vertex -7.425005e-01 2.722515e+00 2.227500e+01
    endloop
  endfacet
  facet normal 0.000000e+00 1.000000e+00 0.000000e+00
    outer loop
      vertex -2.227499e+00 2.722515e+00 2.227500e+01
      vertex -2.227499e+00 2.722515e+00 1.683000e+01
      vertex -3.712500e+00 2.722515e+00 2.227500e+01
    endloop
  endfacet
  facet normal 0.000000e+00 1.000000e+00 0.000000e+00
    outer loop
      vertex -3.712500e+00 2.722515e+00 2.227500e+01
      vertex -2.227499e+00 2.722515e+00 1.683000e+01
      vertex -3.712500e+00 2.722515e+00 1.683000e+01
    endloop
  endfacet
  facet normal -1.000000e+00 0.000000e+00 0.000000e+00
    outer loop
      vertex -2.227499e+00 -3.464985e+00 1.683000e+01
      vertex -2.227499e+00 -3.464985e+00 2.227500e+01
      vertex -2.227499e+00 -2.722515e+00 1.683000e+01
    endloop
  endfacet
  facet normal -1.000000e+00 0.000000e+00 0.000000e+00
    outer loop
      vertex -2.227499e+00 -2.722515e+00 1.683000e+01
      vertex -2.227499e+00 -3.464985e+00 2.227500e+01
      vertex -2.227499e+00 -2.722515e+00 2.227500e+01
    endloop
  endfacet
  facet normal 0.000000e+00 -1.000000e+00 0.000000e+00
    outer loop
      vertex -7.425005e-01 -3.464985e+00 1.683000e+01
      vertex -7.425005e-01 -3.464985e+00 2.227500e+01
      vertex -2.227499e+00 -3.464985e+00 1.683000e+01
    endloop
  endfacet
  facet normal 0.000000e+00 -1.000000e+00 0.000000e+00
    outer loop
      vertex -2.227499e+00 -3.464985e+00 1.683000e+01
      vertex -7.425005e-01 -3.464985e+00 2.227500e+01
      vertex -2.227499e+00 -3.464985e+00 2.227500e+01
    endloop
  endfacet
  facet normal 1.000000e+00 0.000000e+00 0.000000e+00
    outer loop
      vertex -7.425005e-01 -2.722515e+00 1.683000e+01
      vertex -7.425005e-01 -2.722515e+00 2.227500e+01
      vertex -7.425005e-01 -3.464985e+00 1.683000e+01
    endloop
  endfacet
  facet normal 1.000000e+00 0.000000e+00 0.000000e+00
    outer loop
      vertex -7.425005e-01 -3.464985e+00 1.683000e+01
      vertex -7.425005e-01 -2.722515e+00 2.227500e+01
      vertex -7.425005e-01 -3.464985e+00 2.227500e+01
    endloop
  endfacet
  facet normal -0.000000e+00 -1.000000e+00 -0.000000e+00
    outer loop
      vertex -2.475010e-01 -2.722515e+00 2.227500e+01
      vertex -7.425005e-01 -2.722515e+00 2.227500e+01
      vertex -2.475010e-01 -2.722515e+00 1.881000e+01
    endloop
  endfacet
  facet normal -0.000000e+00 -1.000000e+00 -0.000000e+00
    outer loop
      vertex -2.475010e-01 -2.722515e+00 1.881000e+01
      vertex -7.425005e-01 -2.722515e+00 2.227500e+01
      vertex -7.425005e-01 -2.722515e+00 1.683000e+01
    endloop
  endfacet
  facet normal 0.000000e+00 -1.000000e+00 0.000000e+00
    outer loop
      vertex -2.475010e-01 -2.722515e+00 1.683000e+01
      vertex -2.475010e-01 -2.722515e+00 1.881000e+01
      vertex -7.425005e-01 -2.722515e+00 1.683000e+01
    endloop
  endfacet
  facet normal 0.000000e+00 -1.000000e+00 0.000000e+00
    outer loop
      vertex -2.227499e+00 -2.722515e+00 1.683000e+01
      vertex -2.227499e+00 -2.722515e+00 2.227500e+01
      vertex -3.712500e+00 -2.722515e+00 1.683000e+01
    endloop
  endfacet
  facet normal 0.000000e+00 -1.000000e+00 0.000000e+00
    outer loop
      vertex -3.712500e+00 -2.722515e+00 1.683000e+01
      vertex -2.227499e+00 -2.722515e+00 2.227500e+01
      vertex -3.712500e+00 -2.722515e+00 2.227500e+01
    endloop
  endfacet
  facet normal 1.000000e+00 0.000000e+00 0.000000e+00
    outer loop
      vertex 4.949996e-01 1.732492e+00 1.881000e+01
      vertex 4.949996e-01 1.732492e+00 2.227500e+01
      vertex 4.949996e-01 -1.732492e+00 1.881000e+01
    endloop
  endfacet
  facet normal 1.000000e+00 0.000000e+00 0.000000e+00
    outer loop
      vertex 4.949996e-01 -1.732492e+00 1.881000e+01
      vertex 4.949996e-01 1.732492e+00 2.227500e+01
      vertex 4.949996e-01 -1.732492e+00 2.227500e+01
    endloop
  endfacet
  facet normal 0.000000e+00 1.000000e+00 0.000000e+00
    outer loop
      vertex -2.475010e-01 1.732492e+00 1.881000e+01
      vertex -2.475010e-01 1.732492e+00 2.227500e+01
      vertex 4.949996e-01 1.732492e+00 1.881000e+01
    endloop
  endfacet
  facet normal 0.000000e+00 1.000000e+00 0.000000e+00
    outer loop
      vertex 4.949996e-01 1.732492e+00 1.881000e+01
      vertex -2.475010e-01 1.732492e+00 2.227500e+01
      vertex 4.949996e-01 1.732492e+00 2.227500e+01
    endloop
  endfacet
  facet normal 0.000000e+00 -1.000000e+00 0.000000e+00
    outer loop
      vertex 4.949996e-01 -1.732492e+00 1.881000e+01
      vertex 4.949996e-01 -1.732492e+00 2.227500e+01
      vertex -2.475010e-01 -1.732492e+00 1.881000e+01
    endloop
  endfacet
  facet normal 0.000000e+00 -1.000000e+00 0.000000e+00
    outer loop
      vertex -2.475010e-01 -1.732492e+00 1.881000e+01
      vertex 4.949996e-01 -1.732492e+00 2.227500e+01
      vertex -2.475010e-01 -1.732492e+00 2.227500e+01
    endloop
  endfacet
  facet normal 1.000000e+00 -4.440892e-15 1.268826e-15
    outer loop
      vertex -2.475010e-01 1.732492e+00 2.227500e+01
      vertex -2.475010e-01 1.732492e+00 1.881000e+01
      vertex -2.475010e-01 2.722515e+00 2.227500e+01
    endloop
  endfacet
  facet normal 1.000000e+00 0.000000e+00 0.000000e+00
    outer loop
      vertex -2.475010e-01 2.722515e+00 2.227500e+01
      vertex -2.475010e-01 1.732492e+00 1.881000e+01
      vertex -2.475010e-01 2.722515e+00 1.881000e+01
    endloop
  endfacet
  facet normal 1.000000e+00 0.000000e+00 1.268826e-15
    outer loop
      vertex -2.475010e-01 -1.732492e+00 1.881000e+01
      vertex -2.475010e-01 -1.732492e+00 2.227500e+01
      vertex -2.475010e-01 -2.722515e+00 1.881000e+01
    endloop
  endfacet
  facet normal 1.000000e+00 4.440892e-15 0.000000e+00
    outer loop
      vertex -2.475010e-01 -2.722515e+00 1.881000e+01
      vertex -2.475010e-01 -1.732492e+00 2.227500e+01
      vertex -2.475010e-01 -2.722515e+00 2.227500e+01
    endloop
  endfacet
  facet normal 0.000000e+00 0.000000e+00 1.000000e+00
    outer loop
      vertex -2.475010e-01 -2.722515e+00 2.227500e+01
      vertex -2.475010e-01 -1.732492e+00 2.227500e+01
      vertex -7.425005e-01 -2.722515e+00 2.227500e+01
    endloop
  endfacet
  facet normal 0.000000e+00 0.000000e+00 1.000000e+00
    outer loop
      vertex -7.425005e-01 -2.722515e+00 2.227500e+01
      vertex -2.475010e-01 -1.732492e+00 2.227500e+01
      vertex -2.227499e+00 -2.722515e+00 2.227500e+01
    endloop
  endfacet
  facet normal 0.000000e+00 0.000000e+00 1.000000e+00
    outer loop
      vertex -7.425005e-01 -3.464985e+00 2.227500e+01
      vertex -2.227499e+00 -2.722515e+00 2.227500e+01
      vertex -2.227499e+00 -3.464985e+00 2.227500e+01
    endloop
  endfacet
  facet normal 0.000000e+00 0.000000e+00 1.000000e+00
    outer loop
      vertex -7.425005e-01 -3.464985e+00 2.227500e+01
      vertex -7.425005e-01 -2.722515e+00 2.227500e+01
      vertex -2.227499e+00 -2.722515e+00 2.227500e+01
    endloop
  endfacet
  facet normal 0.000000e+00 0.000000e+00 1.000000e+00
    outer loop
      vertex -2.227499e+00 -2.722515e+00 2.227500e+01
      vertex -2.475010e-01 -1.732492e+00 2.227500e+01
      vertex -2.475010e-01 1.732492e+00 2.227500e+01
    endloop
  endfacet
  facet normal 0.000000e+00 0.000000e+00 1.000000e+00
    outer loop
      vertex -2.227499e+00 2.722515e+00 2.227500e+01
      vertex -2.475010e-01 1.732492e+00 2.227500e+01
      vertex -7.425005e-01 2.722515e+00 2.227500e+01
    endloop
  endfacet
  facet normal 0.000000e+00 0.000000e+00 1.000000e+00
    outer loop
      vertex -2.227499e+00 3.464985e+00 2.227500e+01
      vertex -7.425005e-01 2.722515e+00 2.227500e+01
      vertex -7.425005e-01 3.464985e+00 2.227500e+01
    endloop
  endfacet
  facet normal 0.000000e+00 0.000000e+00 1.000000e+00
    outer loop
      vertex -2.227499e+00 3.464985e+00 2.227500e+01
      vertex -2.227499e+00 2.722515e+00 2.227500e+01
      vertex -7.425005e-01 2.722515e+00 2.227500e+01
    endloop
  endfacet
  facet normal 0.000000e+00 0.000000e+00 1.000000e+00
    outer loop
      vertex 4.949996e-01 1.732492e+00 2.227500e+01
      vertex -2.475010e-01 1.732492e+00 2.227500e+01
      vertex 4.949996e-01 -1.732492e+00 2.227500e+01
    endloop
  endfacet
  facet normal 0.000000e+00 0.000000e+00 1.000000e+00
    outer loop
      vertex 4.949996e-01 -1.732492e+00 2.227500e+01
      vertex -2.475010e-01 1.732492e+00 2.227500e+01
      vertex -2.475010e-01 -1.732492e+00 2.227500e+01
    endloop
  endfacet
  facet normal 0.000000e+00 0.000000e+00 1.000000e+00
    outer loop
      vertex -2.475010e-01 1.732492e+00 2.227500e+01
      vertex -2.475010e-01 2.722515e+00 2.227500e+01
      vertex -7.425005e-01 2.722515e+00 2.227500e+01
    endloop
  endfacet
  facet normal 0.000000e+00 0.000000e+00 1.000000e+00
    outer loop
      vertex -2.475010e-01 1.732492e+00 2.227500e+01
      vertex -2.227499e+00 2.722515e+00 2.227500e+01
      vertex -2.227499e+00 -2.722515e+00 2.227500e+01
    endloop
  endfacet
  facet normal 0.000000e+00 0.000000e+00 1.000000e+00
    outer loop
      vertex -2.227499e+00 -2.722515e+00 2.227500e+01
      vertex -2.227499e+00 2.722515e+00 2.227500e+01
      vertex -3.712500e+00 2.722515e+00 2.227500e+01
    endloop
  endfacet
  facet normal 0.000000e+00 0.000000e+00 1.000000e+00
    outer loop
      vertex -3.712500e+00 -2.722515e+00 2.227500e+01
      vertex -2.227499e+00 -2.722515e+00 2.227500e+01
      vertex -3.712500e+00 2.722515e+00 2.227500e+01
    endloop
  endfacet
  facet normal 0.000000e+00 1.000000e+00 0.000000e+00
    outer loop
      vertex -2.475010e-01 2.722515e+00 1.683000e+01
      vertex -7.425005e-01 2.722515e+00 1.683000e+01
      vertex -2.475010e-01 2.722515e+00 1.881000e+01
    endloop
  endfacet
  facet normal 0.000000e+00 1.000000e+00 0.000000e+00
    outer loop
      vertex -2.475010e-01 2.722515e+00 1.881000e+01
      vertex -7.425005e-01 2.722515e+00 1.683000e+01
      vertex -7.425005e-01 2.722515e+00 2.227500e+01
    endloop
  endfacet
  facet normal 0.000000e+00 1.000000e+00 0.000000e+00
    outer loop
      vertex -2.475010e-01 2.722515e+00 2.227500e+01
      vertex -2.475010e-01 2.722515e+00 1.881000e+01
      vertex -7.425005e-01 2.722515e+00 2.227500e+01
    endloop
  endfacet
  facet normal -1.000000e+00 0.000000e+00 0.000000e+00
    outer loop
      vertex -3.712500e+00 -2.722515e+00 1.683000e+01
      vertex -3.712500e+00 -2.722515e+00 2.227500e+01
      vertex -3.712500e+00 2.722515e+00 1.683000e+01
    endloop
  endfacet
  facet normal -1.000000e+00 0.000000e+00 0.000000e+00
    outer loop
      vertex -3.712500e+00 2.722515e+00 1.683000e+01
      vertex -3.712500e+00 -2.722515e+00 2.227500e+01
      vertex -3.712500e+00 2.722515e+00 2.227500e+01
    endloop
  endfacet
  facet normal -1.000000e+00 -0.000000e+00 -0.000000e+00
    outer loop
      vertex -2.475010e-01 -2.722515e+00 1.881000e+01
      vertex -2.475010e-01 -2.722515e+00 1.683000e+01
      vertex -2.475010e-01 -9.652485e+00 1.881000e+01
    endloop
  endfacet
  facet normal -1.000000e+00 -0.000000e+00 -0.000000e+00
    outer loop
      vertex -2.475010e-01 -9.652485e+00 1.881000e+01
      vertex -2.475010e-01 -2.722515e+00 1.683000e+01
      vertex -2.475010e-01 -9.652485e+00 1.683000e+01
    endloop
  endfacet
  facet normal 1.000000e+00 0.000000e+00 0.000000e+00
    outer loop
      vertex 2.227499e+00 -8.167508e+00 1.683000e+01
      vertex 2.227499e+00 -8.167508e+00 1.881000e+01
      vertex 2.227499e+00 -9.652485e+00 1.683000e+01
    endloop
  endfacet
  facet normal 1.000000e+00 0.000000e+00 0.000000e+00
    outer loop
      vertex 2.227499e+00 -9.652485e+00 1.683000e+01
      vertex 2.227499e+00 -8.167508e+00 1.881000e+01
      vertex 2.227499e+00 -9.652485e+00 1.881000e+01
    endloop
  endfacet
  facet normal 0.000000e+00 1.000000e+00 0.000000e+00
    outer loop
      vertex 1.237500e+00 -8.167508e+00 1.683000e+01
      vertex 1.237500e+00 -8.167508e+00 1.881000e+01
      vertex 2.227499e+00 -8.167508e+00 1.683000e+01
    endloop
  endfacet
  facet normal 0.000000e+00 1.000000e+00 0.000000e+00
    outer loop
      vertex 2.227499e+00 -8.167508e+00 1.683000e+01
      vertex 1.237500e+00 -8.167508e+00 1.881000e+01
      vertex 2.227499e+00 -8.167508e+00 1.881000e+01
    endloop
  endfacet
  facet normal 0.000000e+00 -1.000000e+00 0.000000e+00
    outer loop
      vertex 2.227499e+00 8.167508e+00 1.683000e+01
      vertex 2.227499e+00 8.167508e+00 1.881000e+01
      vertex 1.237500e+00 8.167508e+00 1.683000e+01
    endloop
  endfacet
  facet normal 0.000000e+00 -1.000000e+00 0.000000e+00
    outer loop
      vertex 1.237500e+00 8.167508e+00 1.683000e+01
      vertex 2.227499e+00 8.167508e+00 1.881000e+01
      vertex 1.237500e+00 8.167508e+00 1.881000e+01
    endloop
  endfacet
  facet normal 1.000000e+00 0.000000e+00 0.000000e+00
    outer loop
      vertex 2.227499e+00 9.652485e+00 1.683000e+01
      vertex 2.227499e+00 9.652485e+00 1.881000e+01
      vertex 2.227499e+00 8.167508e+00 1.683000e+01
    endloop
  endfacet
  facet normal 1.000000e+00 0.000000e+00 0.000000e+00
    outer loop
      vertex 2.227499e+00 8.167508e+00 1.683000e+01
      vertex 2.227499e+00 9.652485e+00 1.881000e+01
      vertex 2.227499e+00 8.167508e+00 1.881000e+01
    endloop
  endfacet
  facet normal 2.220446e-15 0.000000e+00 1.000000e+00
    outer loop
      vertex 2.227499e+00 9.652485e+00 1.683000e+01
      vertex 2.227499e+00 8.167508e+00 1.683000e+01
      vertex 3.217500e+00 9.652485e+00 1.683000e+01
    endloop
  endfacet
  facet normal 8.326673e-16 9.251858e-16 1.000000e+00
    outer loop
      vertex 3.217500e+00 9.652485e+00 1.683000e+01
      vertex 2.227499e+00 8.167508e+00 1.683000e+01
      vertex 5.692500e+00 7.425000e+00 1.683000e+01
    endloop
  endfacet
  facet normal -3.330669e-16 -3.700743e-16 1.000000e+00
    outer loop
      vertex 5.692500e+00 1.336499e+01 1.683000e+01
      vertex 3.217500e+00 9.652485e+00 1.683000e+01
      vertex 5.692500e+00 7.425000e+00 1.683000e+01
    endloop
  endfacet
  facet normal -8.881784e-16 0.000000e+00 1.000000e+00
    outer loop
      vertex 5.692500e+00 1.336499e+01 1.683000e+01
      vertex 3.217500e+00 1.336499e+01 1.683000e+01
      vertex 3.217500e+00 9.652485e+00 1.683000e+01
    endloop
  endfacet
  facet normal 0.000000e+00 -2.960595e-15 1.000000e+00
    outer loop
      vertex 1.237500e+00 8.167508e+00 1.683000e+01
      vertex 1.237500e+00 7.425000e+00 1.683000e+01
      vertex 2.227499e+00 8.167508e+00 1.683000e+01
    endloop
  endfacet
  facet normal 0.000000e+00 -2.960595e-15 1.000000e+00
    outer loop
      vertex 2.227499e+00 8.167508e+00 1.683000e+01
      vertex 1.237500e+00 7.425000e+00 1.683000e+01
      vertex 5.692500e+00 7.425000e+00 1.683000e+01
    endloop
  endfacet
  facet normal 1.000000e+00 0.000000e+00 0.000000e+00
    outer loop
      vertex 1.237500e+00 -8.167508e+00 1.683000e+01
      vertex 1.237500e+00 -7.449737e+00 1.683000e+01
      vertex 1.237500e+00 -8.167508e+00 1.881000e+01
    endloop
  endfacet
  facet normal 1.000000e+00 0.000000e+00 0.000000e+00
    outer loop
      vertex 1.237500e+00 -8.167508e+00 1.881000e+01
      vertex 1.237500e+00 -7.449737e+00 1.683000e+01
      vertex 1.237500e+00 -4.232267e+00 1.683000e+01
    endloop
  endfacet
  facet normal 1.000000e+00 0.000000e+00 0.000000e+00
    outer loop
      vertex 1.237500e+00 -1.608735e+00 1.683000e+01
      vertex 1.237500e+00 -8.167508e+00 1.881000e+01
      vertex 1.237500e+00 -4.232267e+00 1.683000e+01
    endloop
  endfacet
  facet normal 1.000000e+00 0.000000e+00 0.000000e+00
    outer loop
      vertex 1.237500e+00 -1.608735e+00 1.683000e+01
      vertex 1.237500e+00 1.608735e+00 1.683000e+01
      vertex 1.237500e+00 -8.167508e+00 1.881000e+01
    endloop
  endfacet
  facet normal 1.000000e+00 0.000000e+00 0.000000e+00
    outer loop
      vertex 1.237500e+00 -1.608735e+00 1.683000e+01
      vertex 1.237500e+00 -1.608735e+00 3.465000e+00
      vertex 1.237500e+00 1.608735e+00 1.683000e+01
    endloop
  endfacet
  facet normal 1.000000e+00 0.000000e+00 0.000000e+00
    outer loop
      vertex 1.237500e+00 1.608735e+00 1.683000e+01
      vertex 1.237500e+00 -1.608735e+00 3.465000e+00
      vertex 1.237500e+00 1.608735e+00 3.465000e+00
    endloop
  endfacet
  facet normal 1.000000e+00 0.000000e+00 0.000000e+00
    outer loop
      vertex 1.237500e+00 -7.449737e+00 1.683000e+01
      vertex 1.237500e+00 -7.449737e+00 3.465000e+00
      vertex 1.237500e+00 -4.232267e+00 1.683000e+01
    endloop
  endfacet
  facet normal 1.000000e+00 0.000000e+00 0.000000e+00
    outer loop
      vertex 1.237500e+00 -4.232267e+00 1.683000e+01
      vertex 1.237500e+00 -7.449737e+00 3.465000e+00
      vertex 1.237500e+00 -4.232267e+00 3.465000e+00
    endloop
  endfacet
  facet normal 1.000000e+00 0.000000e+00 0.000000e+00
    outer loop
      vertex 1.237500e+00 -8.167508e+00 1.881000e+01
      vertex 1.237500e+00 1.608735e+00 1.683000e+01
      vertex 1.237500e+00 8.167508e+00 1.881000e+01
    endloop
  endfacet
  facet normal 1.000000e+00 0.000000e+00 0.000000e+00
    outer loop
      vertex 1.237500e+00 8.167508e+00 1.881000e+01
      vertex 1.237500e+00 1.608735e+00 1.683000e+01
      vertex 1.237500e+00 4.207492e+00 1.683000e+01
    endloop
  endfacet
  facet normal 1.000000e+00 0.000000e+00 0.000000e+00
    outer loop
      vertex 1.237500e+00 7.425000e+00 1.683000e+01
      vertex 1.237500e+00 4.207492e+00 1.683000e+01
      vertex 1.237500e+00 4.207492e+00 3.465000e+00
    endloop
  endfacet
  facet normal 1.000000e+00 0.000000e+00 0.000000e+00
    outer loop
      vertex 1.237500e+00 7.425000e+00 3.465000e+00
      vertex 1.237500e+00 7.425000e+00 1.683000e+01
      vertex 1.237500e+00 4.207492e+00 3.465000e+00
    endloop
  endfacet
  facet normal 1.000000e+00 0.000000e+00 0.000000e+00
    outer loop
      vertex 1.237500e+00 8.167508e+00 1.881000e+01
      vertex 1.237500e+00 4.207492e+00 1.683000e+01
      vertex 1.237500e+00 7.425000e+00 1.683000e+01
    endloop
  endfacet
  facet normal 1.000000e+00 0.000000e+00 0.000000e+00
    outer loop
      vertex 1.237500e+00 8.167508e+00 1.683000e+01
      vertex 1.237500e+00 8.167508e+00 1.881000e+01
      vertex 1.237500e+00 7.425000e+00 1.683000e+01
    endloop
  endfacet
  facet normal 0.000000e+00 0.000000e+00 1.000000e+00
    outer loop
      vertex -2.475010e-01 -1.732492e+00 1.881000e+01
      vertex -2.475010e-01 -2.722515e+00 1.881000e+01
      vertex 4.949996e-01 -1.732492e+00 1.881000e+01
    endloop
  endfacet
  facet normal 0.000000e+00 0.000000e+00 1.000000e+00
    outer loop
      vertex 4.949996e-01 -1.732492e+00 1.881000e+01
      vertex -2.475010e-01 -2.722515e+00 1.881000e+01
      vertex -2.475010e-01 -9.652485e+00 1.881000e+01
    endloop
  endfacet
  facet normal -8.881784e-16 -5.921189e-16 1.000000e+00
    outer loop
      vertex 1.237500e+00 -8.167508e+00 1.881000e+01
      vertex -2.475010e-01 -9.652485e+00 1.881000e+01
      vertex 2.227499e+00 -9.652485e+00 1.881000e+01
    endloop
  endfacet
  facet normal 0.000000e+00 0.000000e+00 1.000000e+00
    outer loop
      vertex 2.227499e+00 -8.167508e+00 1.881000e+01
      vertex 1.237500e+00 -8.167508e+00 1.881000e+01
      vertex 2.227499e+00 -9.652485e+00 1.881000e+01
    endloop
  endfacet
  facet normal -1.633432e-15 1.531342e-16 1.000000e+00
    outer loop
      vertex 4.949996e-01 -1.732492e+00 1.881000e+01
      vertex -2.475010e-01 -9.652485e+00 1.881000e+01
      vertex 1.237500e+00 -8.167508e+00 1.881000e+01
    endloop
  endfacet
  facet normal -2.960595e-15 0.000000e+00 1.000000e+00
    outer loop
      vertex 1.237500e+00 8.167508e+00 1.881000e+01
      vertex 4.949996e-01 -1.732492e+00 1.881000e+01
      vertex 1.237500e+00 -8.167508e+00 1.881000e+01
    endloop
  endfacet
  facet normal -2.960595e-15 0.000000e+00 1.000000e+00
    outer loop
      vertex 1.237500e+00 8.167508e+00 1.881000e+01
      vertex 4.949996e-01 1.732492e+00 1.881000e+01
      vertex 4.949996e-01 -1.732492e+00 1.881000e+01
    endloop
  endfacet
  facet normal -1.633432e-15 -1.531342e-16 1.000000e+00
    outer loop
      vertex 1.237500e+00 8.167508e+00 1.881000e+01
      vertex -2.475010e-01 9.652485e+00 1.881000e+01
      vertex 4.949996e-01 1.732492e+00 1.881000e+01
    endloop
  endfacet
  facet normal -8.881784e-16 5.921189e-16 1.000000e+00
    outer loop
      vertex 1.237500e+00 8.167508e+00 1.881000e+01
      vertex 2.227499e+00 9.652485e+00 1.881000e+01
      vertex -2.475010e-01 9.652485e+00 1.881000e+01
    endloop
  endfacet
  facet normal 0.000000e+00 0.000000e+00 1.000000e+00
    outer loop
      vertex 1.237500e+00 8.167508e+00 1.881000e+01
      vertex 2.227499e+00 8.167508e+00 1.881000e+01
      vertex 2.227499e+00 9.652485e+00 1.881000e+01
    endloop
  endfacet
  facet normal 0.000000e+00 0.000000e+00 1.000000e+00
    outer loop
      vertex -2.475010e-01 9.652485e+00 1.881000e+01
      vertex -2.475010e-01 2.722515e+00 1.881000e+01
      vertex 4.949996e-01 1.732492e+00 1.881000e+01
    endloop
  endfacet
  facet normal 0.000000e+00 0.000000e+00 1.000000e+00
    outer loop
      vertex 4.949996e-01 1.732492e+00 1.881000e+01
      vertex -2.475010e-01 2.722515e+00 1.881000e+01
      vertex -2.475010e-01 1.732492e+00 1.881000e+01
    endloop
  endfacet
  facet normal -1.000000e+00 0.000000e+00 0.000000e+00
    outer loop
      vertex -2.475010e-01 2.722515e+00 1.683000e+01
      vertex -2.475010e-01 2.722515e+00 1.881000e+01
      vertex -2.475010e-01 9.652485e+00 1.683000e+01
    endloop
  endfacet
  facet normal -1.000000e+00 0.000000e+00 0.000000e+00
    outer loop
      vertex -2.475010e-01 9.652485e+00 1.683000e+01
      vertex -2.475010e-01 2.722515e+00 1.881000e+01
      vertex -2.475010e-01 9.652485e+00 1.881000e+01
    endloop
  endfacet
  facet normal 2.220446e-15 0.000000e+00 1.000000e+00
    outer loop
      vertex 2.227499e+00 -9.652485e+00 1.683000e+01
      vertex 3.217500e+00 -9.652485e+00 1.683000e+01
      vertex 2.227499e+00 -8.167508e+00 1.683000e+01
    endloop
  endfacet
  facet normal 8.268606e-16 -9.290568e-16 1.000000e+00
    outer loop
      vertex 2.227499e+00 -8.167508e+00 1.683000e+01
      vertex 3.217500e+00 -9.652485e+00 1.683000e+01
      vertex 5.692500e+00 -7.449737e+00 1.683000e+01
    endloop
  endfacet
  facet normal 0.000000e+00 3.062684e-15 1.000000e+00
    outer loop
      vertex 1.237500e+00 -7.449737e+00 1.683000e+01
      vertex 2.227499e+00 -8.167508e+00 1.683000e+01
      vertex 5.692500e+00 -7.449737e+00 1.683000e+01
    endloop
  endfacet
  facet normal 0.000000e+00 3.062684e-15 1.000000e+00
    outer loop
      vertex 1.237500e+00 -7.449737e+00 1.683000e+01
      vertex 1.237500e+00 -8.167508e+00 1.683000e+01
      vertex 2.227499e+00 -8.167508e+00 1.683000e+01
    endloop
  endfacet
  facet normal -8.881784e-16 0.000000e+00 1.000000e+00
    outer loop
      vertex 3.217500e+00 -1.336499e+01 1.683000e+01
      vertex 5.692500e+00 -1.336499e+01 1.683000e+01
      vertex 3.217500e+00 -9.652485e+00 1.683000e+01
    endloop
  endfacet
  facet normal -3.307443e-16 3.716228e-16 1.000000e+00
    outer loop
      vertex 3.217500e+00 -9.652485e+00 1.683000e+01
      vertex 5.692500e+00 -1.336499e+01 1.683000e+01
      vertex 5.692500e+00 -7.449737e+00 1.683000e+01
    endloop
  endfacet
  facet normal 0.000000e+00 0.000000e+00 1.000000e+00
    outer loop
      vertex -7.425005e-01 2.722515e+00 1.683000e+01
      vertex -2.475010e-01 2.722515e+00 1.683000e+01
      vertex -7.425005e-01 3.464985e+00 1.683000e+01
    endloop
  endfacet
  facet normal 0.000000e+00 0.000000e+00 1.000000e+00
    outer loop
      vertex -7.425005e-01 3.464985e+00 1.683000e+01
      vertex -2.475010e-01 2.722515e+00 1.683000e+01
      vertex -2.475010e-01 9.652485e+00 1.683000e+01
    endloop
  endfacet
  facet normal -2.220446e-15 4.382561e-30 1.000000e+00
    outer loop
      vertex -1.237500e+00 7.425000e+00 1.683000e+01
      vertex -2.475010e-01 9.652485e+00 1.683000e+01
      vertex -1.237500e+00 9.652485e+00 1.683000e+01
    endloop
  endfacet
  facet normal 0.000000e+00 0.000000e+00 1.000000e+00
    outer loop
      vertex -3.217500e+00 9.652485e+00 1.683000e+01
      vertex -1.237500e+00 7.425000e+00 1.683000e+01
      vertex -1.237500e+00 9.652485e+00 1.683000e+01
    endloop
  endfacet
  facet normal 0.000000e+00 0.000000e+00 1.000000e+00
    outer loop
      vertex -3.217500e+00 9.652485e+00 1.683000e+01
      vertex -5.692500e+00 7.425000e+00 1.683000e+01
      vertex -1.237500e+00 7.425000e+00 1.683000e+01
    endloop
  endfacet
  facet normal 3.330669e-16 -3.700743e-16 1.000000e+00
    outer loop
      vertex -3.217500e+00 9.652485e+00 1.683000e+01
      vertex -5.692500e+00 1.336499e+01 1.683000e+01
      vertex -5.692500e+00 7.425000e+00 1.683000e+01
    endloop
  endfacet
  facet normal 8.881784e-16 0.000000e+00 1.000000e+00
    outer loop
      vertex -3.217500e+00 9.652485e+00 1.683000e+01
      vertex -3.217500e+00 1.336499e+01 1.683000e+01
      vertex -5.692500e+00 1.336499e+01 1.683000e+01
    endloop
  endfacet
  facet normal 1.480297e-15 0.000000e+00 1.000000e+00
    outer loop
      vertex 1.237500e+00 9.652485e+00 1.683000e+01
      vertex 1.237500e+00 1.336499e+01 1.683000e+01
      vertex -2.475010e-01 9.652485e+00 1.683000e+01
    endloop
  endfacet
  facet normal 0.000000e+00 5.921189e-16 1.000000e+00
    outer loop
      vertex -2.475010e-01 9.652485e+00 1.683000e+01
      vertex 1.237500e+00 1.336499e+01 1.683000e+01
      vertex -1.237500e+00 1.336499e+01 1.683000e+01
    endloop
  endfacet
  facet normal -2.220446e-15 0.000000e+00 1.000000e+00
    outer loop
      vertex -1.237500e+00 9.652485e+00 1.683000e+01
      vertex -2.475010e-01 9.652485e+00 1.683000e+01
      vertex -1.237500e+00 1.336499e+01 1.683000e+01
    endloop
  endfacet
  facet normal -2.707861e-15 2.166289e-16 1.000000e+00
    outer loop
      vertex -2.475010e-01 9.652485e+00 1.683000e+01
      vertex -1.237500e+00 7.425000e+00 1.683000e+01
      vertex -7.425005e-01 3.464985e+00 1.683000e+01
    endloop
  endfacet
  facet normal -4.440892e-15 0.000000e+00 1.000000e+00
    outer loop
      vertex -7.425005e-01 3.464985e+00 1.683000e+01
      vertex -1.237500e+00 7.425000e+00 1.683000e+01
      vertex -1.237500e+00 4.207492e+00 1.683000e+01
    endloop
  endfacet
  facet normal 0.000000e+00 2.960595e-15 1.000000e+00
    outer loop
      vertex -2.227499e+00 3.464985e+00 1.683000e+01
      vertex -1.237500e+00 4.207492e+00 1.683000e+01
      vertex -5.692500e+00 4.207492e+00 1.683000e+01
    endloop
  endfacet
  facet normal -1.110223e-15 0.000000e+00 1.000000e+00
    outer loop
      vertex -3.712500e+00 2.722515e+00 1.683000e+01
      vertex -5.692500e+00 4.207492e+00 1.683000e+01
      vertex -3.712500e+00 -2.722515e+00 1.683000e+01
    endloop
  endfacet
  facet normal -4.440892e-16 8.881784e-16 1.000000e+00
    outer loop
      vertex -3.712500e+00 2.722515e+00 1.683000e+01
      vertex -2.227499e+00 3.464985e+00 1.683000e+01
      vertex -5.692500e+00 4.207492e+00 1.683000e+01
    endloop
  endfacet
  facet normal 0.000000e+00 0.000000e+00 1.000000e+00
    outer loop
      vertex -3.712500e+00 2.722515e+00 1.683000e+01
      vertex -2.227499e+00 2.722515e+00 1.683000e+01
      vertex -2.227499e+00 3.464985e+00 1.683000e+01
    endloop
  endfacet
  facet normal 0.000000e+00 2.960595e-15 1.000000e+00
    outer loop
      vertex -7.425005e-01 3.464985e+00 1.683000e+01
      vertex -1.237500e+00 4.207492e+00 1.683000e+01
      vertex -2.227499e+00 3.464985e+00 1.683000e+01
    endloop
  endfacet
  facet normal -1.110223e-15 0.000000e+00 1.000000e+00
    outer loop
      vertex -5.692500e+00 4.207492e+00 1.683000e+01
      vertex -5.692500e+00 -4.232267e+00 1.683000e+01
      vertex -3.712500e+00 -2.722515e+00 1.683000e+01
    endloop
  endfacet
  facet normal -4.396923e-16 -8.793846e-16 1.000000e+00
    outer loop
      vertex -3.712500e+00 -2.722515e+00 1.683000e+01
      vertex -5.692500e+00 -4.232267e+00 1.683000e+01
      vertex -2.227499e+00 -3.464985e+00 1.683000e+01
    endloop
  endfacet
  facet normal 0.000000e+00 0.000000e+00 1.000000e+00
    outer loop
      vertex -2.227499e+00 -2.722515e+00 1.683000e+01
      vertex -3.712500e+00 -2.722515e+00 1.683000e+01
      vertex -2.227499e+00 -3.464985e+00 1.683000e+01
    endloop
  endfacet
  facet normal 0.000000e+00 -2.865092e-15 1.000000e+00
    outer loop
      vertex -5.692500e+00 -4.232267e+00 1.683000e+01
      vertex -1.237500e+00 -4.232267e+00 1.683000e+01
      vertex -2.227499e+00 -3.464985e+00 1.683000e+01
    endloop
  endfacet
  facet normal 0.000000e+00 -2.865092e-15 1.000000e+00
    outer loop
      vertex -2.227499e+00 -3.464985e+00 1.683000e+01
      vertex -1.237500e+00 -4.232267e+00 1.683000e+01
      vertex -7.425005e-01 -3.464985e+00 1.683000e+01
    endloop
  endfacet
  facet normal -4.440892e-15 0.000000e+00 1.000000e+00
    outer loop
      vertex -7.425005e-01 -3.464985e+00 1.683000e+01
      vertex -1.237500e+00 -4.232267e+00 1.683000e+01
      vertex -1.237500e+00 -7.449737e+00 1.683000e+01
    endloop
  endfacet
  facet normal -2.220446e-15 -4.431803e-30 1.000000e+00
    outer loop
      vertex -2.475010e-01 -9.652485e+00 1.683000e+01
      vertex -1.237500e+00 -7.449737e+00 1.683000e+01
      vertex -1.237500e+00 -9.652485e+00 1.683000e+01
    endloop
  endfacet
  facet normal -2.220446e-15 0.000000e+00 1.000000e+00
    outer loop
      vertex -1.237500e+00 -1.336499e+01 1.683000e+01
      vertex -2.475010e-01 -9.652485e+00 1.683000e+01
      vertex -1.237500e+00 -9.652485e+00 1.683000e+01
    endloop
  endfacet
  facet normal 0.000000e+00 -5.921189e-16 1.000000e+00
    outer loop
      vertex -1.237500e+00 -1.336499e+01 1.683000e+01
      vertex 1.237500e+00 -1.336499e+01 1.683000e+01
      vertex -2.475010e-01 -9.652485e+00 1.683000e+01
    endloop
  endfacet
  facet normal 1.480297e-15 0.000000e+00 1.000000e+00
    outer loop
      vertex -2.475010e-01 -9.652485e+00 1.683000e+01
      vertex 1.237500e+00 -1.336499e+01 1.683000e+01
      vertex 1.237500e+00 -9.652485e+00 1.683000e+01
    endloop
  endfacet
  facet normal 0.000000e+00 0.000000e+00 1.000000e+00
    outer loop
      vertex -1.237500e+00 -9.652485e+00 1.683000e+01
      vertex -1.237500e+00 -7.449737e+00 1.683000e+01
      vertex -3.217500e+00 -9.652485e+00 1.683000e+01
    endloop
  endfacet
  facet normal 0.000000e+00 0.000000e+00 1.000000e+00
    outer loop
      vertex -3.217500e+00 -9.652485e+00 1.683000e+01
      vertex -1.237500e+00 -7.449737e+00 1.683000e+01
      vertex -5.692500e+00 -7.449737e+00 1.683000e+01
    endloop
  endfacet
  facet normal 3.307443e-16 3.716228e-16 1.000000e+00
    outer loop
      vertex -5.692500e+00 -1.336499e+01 1.683000e+01
      vertex -3.217500e+00 -9.652485e+00 1.683000e+01
      vertex -5.692500e+00 -7.449737e+00 1.683000e+01
    endloop
  endfacet
  facet normal 8.881784e-16 0.000000e+00 1.000000e+00
    outer loop
      vertex -5.692500e+00 -1.336499e+01 1.683000e+01
      vertex -3.217500e+00 -1.336499e+01 1.683000e+01
      vertex -3.217500e+00 -9.652485e+00 1.683000e+01
    endloop
  endfacet
  facet normal -2.701273e-15 -2.161018e-16 1.000000e+00
    outer loop
      vertex -1.237500e+00 -7.449737e+00 1.683000e+01
      vertex -2.475010e-01 -9.652485e+00 1.683000e+01
      vertex -7.425005e-01 -3.464985e+00 1.683000e+01
    endloop
  endfacet
  facet normal 0.000000e+00 0.000000e+00 1.000000e+00
    outer loop
      vertex -7.425005e-01 -3.464985e+00 1.683000e+01
      vertex -2.475010e-01 -9.652485e+00 1.683000e+01
      vertex -2.475010e-01 -2.722515e+00 1.683000e+01
    endloop
  endfacet
  facet normal 0.000000e+00 0.000000e+00 1.000000e+00
    outer loop
      vertex -7.425005e-01 -2.722515e+00 1.683000e+01
      vertex -7.425005e-01 -3.464985e+00 1.683000e+01
      vertex -2.475010e-01 -2.722515e+00 1.683000e+01
    endloop
  endfacet
  facet normal 0.000000e+00 8.458842e-16 1.000000e+00
    outer loop
      vertex 1.237500e+00 1.608735e+00 1.683000e+01
      vertex 5.692500e+00 1.608735e+00 1.683000e+01
      vertex 1.237500e+00 4.207492e+00 1.683000e+01
    endloop
  endfacet
  facet normal 0.000000e+00 8.458842e-16 1.000000e+00
    outer loop
      vertex 1.237500e+00 4.207492e+00 1.683000e+01
      vertex 5.692500e+00 1.608735e+00 1.683000e+01
      vertex 5.692500e+00 4.207492e+00 1.683000e+01
    endloop
  endfacet
  facet normal 0.000000e+00 -8.379042e-16 1.000000e+00
    outer loop
      vertex 1.237500e+00 -4.232267e+00 1.683000e+01
      vertex 5.692500e+00 -4.232267e+00 1.683000e+01
      vertex 1.237500e+00 -1.608735e+00 1.683000e+01
    endloop
  endfacet
  facet normal 0.000000e+00 -8.379042e-16 1.000000e+00
    outer loop
      vertex 1.237500e+00 -1.608735e+00 1.683000e+01
      vertex 5.692500e+00 -4.232267e+00 1.683000e+01
      vertex 5.692500e+00 -1.608735e+00 1.683000e+01
    endloop
  endfacet
  facet normal 0.000000e+00 0.000000e+00 1.000000e+00
    outer loop
      vertex 5.692500e+00 -4.232267e+00 3.465000e+00
      vertex 1.237500e+00 -4.232267e+00 3.465000e+00
      vertex 5.692500e+00 -7.449737e+00 3.465000e+00
    endloop
  endfacet
  facet normal 0.000000e+00 0.000000e+00 1.000000e+00
    outer loop
      vertex 5.692500e+00 -7.449737e+00 3.465000e+00
      vertex 1.237500e+00 -4.232267e+00 3.465000e+00
      vertex 1.237500e+00 -7.449737e+00 3.465000e+00
    endloop
  endfacet
  facet normal 0.000000e+00 1.000000e+00 0.000000e+00
    outer loop
      vertex 1.237500e+00 -7.449737e+00 3.465000e+00
      vertex 1.237500e+00 -7.449737e+00 1.683000e+01
      vertex 5.692500e+00 -7.449737e+00 3.465000e+00
    endloop
  endfacet
  facet normal 0.000000e+00 1.000000e+00 0.000000e+00
    outer loop
      vertex 5.692500e+00 -7.449737e+00 3.465000e+00
      vertex 1.237500e+00 -7.449737e+00 1.683000e+01
      vertex 5.692500e+00 -7.449737e+00 1.683000e+01
    endloop
  endfacet
  facet normal 0.000000e+00 -1.000000e+00 0.000000e+00
    outer loop
      vertex 5.692500e+00 -4.232267e+00 3.465000e+00
      vertex 5.692500e+00 -4.232267e+00 1.683000e+01
      vertex 1.237500e+00 -4.232267e+00 3.465000e+00
    endloop
  endfacet
  facet normal 0.000000e+00 -1.000000e+00 0.000000e+00
    outer loop
      vertex 1.237500e+00 -4.232267e+00 3.465000e+00
      vertex 5.692500e+00 -4.232267e+00 1.683000e+01
      vertex 1.237500e+00 -4.232267e+00 1.683000e+01
    endloop
  endfacet
  facet normal 0.000000e+00 0.000000e+00 1.000000e+00
    outer loop
      vertex -1.237500e+00 1.336499e+01 3.465000e+00
      vertex -3.217500e+00 1.336499e+01 3.465000e+00
      vertex -1.237500e+00 9.652485e+00 3.465000e+00
    endloop
  endfacet
  facet normal 0.000000e+00 0.000000e+00 1.000000e+00
    outer loop
      vertex -1.237500e+00 9.652485e+00 3.465000e+00
      vertex -3.217500e+00 1.336499e+01 3.465000e+00
      vertex -3.217500e+00 9.652485e+00 3.465000e+00
    endloop
  endfacet
  facet normal 0.000000e+00 1.000000e+00 0.000000e+00
    outer loop
      vertex -3.217500e+00 9.652485e+00 3.465000e+00
      vertex -3.217500e+00 9.652485e+00 1.683000e+01
      vertex -1.237500e+00 9.652485e+00 3.465000e+00
    endloop
  endfacet
  facet normal 0.000000e+00 1.000000e+00 0.000000e+00
    outer loop
      vertex -1.237500e+00 9.652485e+00 3.465000e+00
      vertex -3.217500e+00 9.652485e+00 1.683000e+01
      vertex -1.237500e+00 9.652485e+00 1.683000e+01
    endloop
  endfacet
  facet normal 1.000000e+00 0.000000e+00 0.000000e+00
    outer loop
      vertex -3.217500e+00 1.336499e+01 3.465000e+00
      vertex -3.217500e+00 1.336499e+01 1.683000e+01
      vertex -3.217500e+00 9.652485e+00 3.465000e+00
    endloop
  endfacet
  facet normal 1.000000e+00 0.000000e+00 0.000000e+00
    outer loop
      vertex -3.217500e+00 9.652485e+00 3.465000e+00
      vertex -3.217500e+00 1.336499e+01 1.683000e+01
      vertex -3.217500e+00 9.652485e+00 1.683000e+01
    endloop
  endfacet
  facet normal -1.000000e+00 0.000000e+00 0.000000e+00
    outer loop
      vertex -1.237500e+00 9.652485e+00 3.465000e+00
      vertex -1.237500e+00 9.652485e+00 1.683000e+01
      vertex -1.237500e+00 1.336499e+01 3.465000e+00
    endloop
  endfacet
  facet normal -1.000000e+00 0.000000e+00 0.000000e+00
    outer loop
      vertex -1.237500e+00 1.336499e+01 3.465000e+00
      vertex -1.237500e+00 9.652485e+00 1.683000e+01
      vertex -1.237500e+00 1.336499e+01 1.683000e+01
    endloop
  endfacet
  facet normal 0.000000e+00 1.000000e+00 0.000000e+00
    outer loop
      vertex -3.217500e+00 1.336499e+01 1.683000e+01
      vertex -3.217500e+00 1.336499e+01 3.465000e+00
      vertex -5.692500e+00 1.336499e+01 1.683000e+01
    endloop
  endfacet
  facet normal 0.000000e+00 1.000000e+00 0.000000e+00
    outer loop
      vertex -5.692500e+00 1.336499e+01 1.683000e+01
      vertex -3.217500e+00 1.336499e+01 3.465000e+00
      vertex -5.692500e+00 1.336499e+01 0.000000e+00
    endloop
  endfacet
  facet normal 0.000000e+00 1.000000e+00 0.000000e+00
    outer loop
      vertex -5.692500e+00 1.336499e+01 0.000000e+00
      vertex -3.217500e+00 1.336499e+01 3.465000e+00
      vertex -1.237500e+00 1.336499e+01 3.465000e+00
    endloop
  endfacet
  facet normal 0.000000e+00 1.000000e+00 0.000000e+00
    outer loop
      vertex 1.237500e+00 1.336499e+01 3.465000e+00
      vertex -1.237500e+00 1.336499e+01 3.465000e+00
      vertex -1.237500e+00 1.336499e+01 1.683000e+01
    endloop
  endfacet
  facet normal 0.000000e+00 1.000000e+00 0.000000e+00
    outer loop
      vertex 1.237500e+00 1.336499e+01 1.683000e+01
      vertex 1.237500e+00 1.336499e+01 3.465000e+00
      vertex -1.237500e+00 1.336499e+01 1.683000e+01
    endloop
  endfacet
  facet normal 0.000000e+00 1.000000e+00 0.000000e+00
    outer loop
      vertex -5.692500e+00 1.336499e+01 0.000000e+00
      vertex -1.237500e+00 1.336499e+01 3.465000e+00
      vertex 1.237500e+00 1.336499e+01 3.465000e+00
    endloop
  endfacet
  facet normal 0.000000e+00 1.000000e+00 0.000000e+00
    outer loop
      vertex 5.692500e+00 1.336499e+01 0.000000e+00
      vertex 1.237500e+00 1.336499e+01 3.465000e+00
      vertex 3.217500e+00 1.336499e+01 3.465000e+00
    endloop
  endfacet
  facet normal 0.000000e+00 1.000000e+00 0.000000e+00
    outer loop
      vertex 5.692500e+00 1.336499e+01 1.683000e+01
      vertex 3.217500e+00 1.336499e+01 3.465000e+00
      vertex 3.217500e+00 1.336499e+01 1.683000e+01
    endloop
  endfacet
  facet normal 0.000000e+00 1.000000e+00 0.000000e+00
    outer loop
      vertex 5.692500e+00 1.336499e+01 1.683000e+01
      vertex 5.692500e+00 1.336499e+01 0.000000e+00
      vertex 3.217500e+00 1.336499e+01 3.465000e+00
    endloop
  endfacet
  facet normal 0.000000e+00 1.000000e+00 0.000000e+00
    outer loop
      vertex -5.692500e+00 1.336499e+01 0.000000e+00
      vertex 1.237500e+00 1.336499e+01 3.465000e+00
      vertex 5.692500e+00 1.336499e+01 0.000000e+00
    endloop
  endfacet
  facet normal 0.000000e+00 0.000000e+00 1.000000e+00
    outer loop
      vertex 3.217500e+00 1.336499e+01 3.465000e+00
      vertex 1.237500e+00 1.336499e+01 3.465000e+00
      vertex 3.217500e+00 9.652485e+00 3.465000e+00
    endloop
  endfacet
  facet normal 0.000000e+00 0.000000e+00 1.000000e+00
    outer loop
      vertex 3.217500e+00 9.652485e+00 3.465000e+00
      vertex 1.237500e+00 1.336499e+01 3.465000e+00
      vertex 1.237500e+00 9.652485e+00 3.465000e+00
    endloop
  endfacet
  facet normal 0.000000e+00 1.000000e+00 0.000000e+00
    outer loop
      vertex 3.217500e+00 9.652485e+00 3.465000e+00
      vertex 1.237500e+00 9.652485e+00 3.465000e+00
      vertex 2.227499e+00 9.652485e+00 1.683000e+01
    endloop
  endfacet
  facet normal 0.000000e+00 1.000000e+00 0.000000e+00
    outer loop
      vertex 3.217500e+00 9.652485e+00 1.683000e+01
      vertex 3.217500e+00 9.652485e+00 3.465000e+00
      vertex 2.227499e+00 9.652485e+00 1.683000e+01
    endloop
  endfacet
  facet normal 0.000000e+00 1.000000e+00 0.000000e+00
    outer loop
      vertex -2.475010e-01 9.652485e+00 1.683000e+01
      vertex -2.475010e-01 9.652485e+00 1.881000e+01
      vertex 1.237500e+00 9.652485e+00 1.683000e+01
    endloop
  endfacet
  facet normal 0.000000e+00 1.000000e+00 0.000000e+00
    outer loop
      vertex 1.237500e+00 9.652485e+00 1.683000e+01
      vertex -2.475010e-01 9.652485e+00 1.881000e+01
      vertex 2.227499e+00 9.652485e+00 1.881000e+01
    endloop
  endfacet
  facet normal 0.000000e+00 1.000000e+00 0.000000e+00
    outer loop
      vertex 2.227499e+00 9.652485e+00 1.683000e+01
      vertex 1.237500e+00 9.652485e+00 1.683000e+01
      vertex 2.227499e+00 9.652485e+00 1.881000e+01
    endloop
  endfacet
  facet normal 0.000000e+00 1.000000e+00 0.000000e+00
    outer loop
      vertex 2.227499e+00 9.652485e+00 1.683000e+01
      vertex 1.237500e+00 9.652485e+00 3.465000e+00
      vertex 1.237500e+00 9.652485e+00 1.683000e+01
    endloop
  endfacet
  facet normal 1.000000e+00 0.000000e+00 0.000000e+00
    outer loop
      vertex 1.237500e+00 1.336499e+01 3.465000e+00
      vertex 1.237500e+00 1.336499e+01 1.683000e+01
      vertex 1.237500e+00 9.652485e+00 3.465000e+00
    endloop
  endfacet
  facet normal 1.000000e+00 0.000000e+00 0.000000e+00
    outer loop
      vertex 1.237500e+00 9.652485e+00 3.465000e+00
      vertex 1.237500e+00 1.336499e+01 1.683000e+01
      vertex 1.237500e+00 9.652485e+00 1.683000e+01
    endloop
  endfacet
  facet normal -1.000000e+00 0.000000e+00 0.000000e+00
    outer loop
      vertex 3.217500e+00 9.652485e+00 3.465000e+00
      vertex 3.217500e+00 9.652485e+00 1.683000e+01
      vertex 3.217500e+00 1.336499e+01 3.465000e+00
    endloop
  endfacet
  facet normal -1.000000e+00 0.000000e+00 0.000000e+00
    outer loop
      vertex 3.217500e+00 1.336499e+01 3.465000e+00
      vertex 3.217500e+00 9.652485e+00 1.683000e+01
      vertex 3.217500e+00 1.336499e+01 1.683000e+01
    endloop
  endfacet
  facet normal 0.000000e+00 0.000000e+00 1.000000e+00
    outer loop
      vertex -1.237500e+00 7.425000e+00 3.465000e+00
      vertex -5.692500e+00 7.425000e+00 3.465000e+00
      vertex -1.237500e+00 4.207492e+00 3.465000e+00
    endloop
  endfacet
  facet normal 0.000000e+00 0.000000e+00 1.000000e+00
    outer loop
      vertex -1.237500e+00 4.207492e+00 3.465000e+00
      vertex -5.692500e+00 7.425000e+00 3.465000e+00
      vertex -5.692500e+00 4.207492e+00 3.465000e+00
    endloop
  endfacet
  facet normal 0.000000e+00 1.000000e+00 0.000000e+00
    outer loop
      vertex -5.692500e+00 4.207492e+00 3.465000e+00
      vertex -5.692500e+00 4.207492e+00 1.683000e+01
      vertex -1.237500e+00 4.207492e+00 3.465000e+00
    endloop
  endfacet
  facet normal 0.000000e+00 1.000000e+00 0.000000e+00
    outer loop
      vertex -1.237500e+00 4.207492e+00 3.465000e+00
      vertex -5.692500e+00 4.207492e+00 1.683000e+01
      vertex -1.237500e+00 4.207492e+00 1.683000e+01
    endloop
  endfacet
  facet normal 0.000000e+00 -1.000000e+00 0.000000e+00
    outer loop
      vertex -1.237500e+00 7.425000e+00 3.465000e+00
      vertex -1.237500e+00 7.425000e+00 1.683000e+01
      vertex -5.692500e+00 7.425000e+00 3.465000e+00
    endloop
  endfacet
  facet normal 0.000000e+00 -1.000000e+00 0.000000e+00
    outer loop
      vertex -5.692500e+00 7.425000e+00 3.465000e+00
      vertex -1.237500e+00 7.425000e+00 1.683000e+01
      vertex -5.692500e+00 7.425000e+00 1.683000e+01
    endloop
  endfacet
  facet normal -1.000000e+00 0.000000e+00 0.000000e+00
    outer loop
      vertex -1.237500e+00 4.207492e+00 3.465000e+00
      vertex -1.237500e+00 4.207492e+00 1.683000e+01
      vertex -1.237500e+00 7.425000e+00 3.465000e+00
    endloop
  endfacet
  facet normal -1.000000e+00 0.000000e+00 0.000000e+00
    outer loop
      vertex -1.237500e+00 7.425000e+00 3.465000e+00
      vertex -1.237500e+00 4.207492e+00 1.683000e+01
      vertex -1.237500e+00 7.425000e+00 1.683000e+01
    endloop
  endfacet
  facet normal 0.000000e+00 0.000000e+00 1.000000e+00
    outer loop
      vertex -1.237500e+00 -4.232267e+00 3.465000e+00
      vertex -5.692500e+00 -4.232267e+00 3.465000e+00
      vertex -1.237500e+00 -7.449737e+00 3.465000e+00
    endloop
  endfacet
  facet normal 0.000000e+00 0.000000e+00 1.000000e+00
    outer loop
      vertex -1.237500e+00 -7.449737e+00 3.465000e+00
      vertex -5.692500e+00 -4.232267e+00 3.465000e+00
      vertex -5.692500e+00 -7.449737e+00 3.465000e+00
    endloop
  endfacet
  facet normal 0.000000e+00 1.000000e+00 0.000000e+00
    outer loop
      vertex -5.692500e+00 -7.449737e+00 3.465000e+00
      vertex -5.692500e+00 -7.449737e+00 1.683000e+01
      vertex -1.237500e+00 -7.449737e+00 3.465000e+00
    endloop
  endfacet
  facet normal 0.000000e+00 1.000000e+00 0.000000e+00
    outer loop
      vertex -1.237500e+00 -7.449737e+00 3.465000e+00
      vertex -5.692500e+00 -7.449737e+00 1.683000e+01
      vertex -1.237500e+00 -7.449737e+00 1.683000e+01
    endloop
  endfacet
  facet normal 0.000000e+00 -1.000000e+00 0.000000e+00
    outer loop
      vertex -1.237500e+00 -4.232267e+00 3.465000e+00
      vertex -1.237500e+00 -4.232267e+00 1.683000e+01
      vertex -5.692500e+00 -4.232267e+00 3.465000e+00
    endloop
  endfacet
  facet normal 0.000000e+00 -1.000000e+00 0.000000e+00
    outer loop
      vertex -5.692500e+00 -4.232267e+00 3.465000e+00
      vertex -1.237500e+00 -4.232267e+00 1.683000e+01
      vertex -5.692500e+00 -4.232267e+00 1.683000e+01
    endloop
  endfacet
  facet normal -1.000000e+00 0.000000e+00 0.000000e+00
    outer loop
      vertex -1.237500e+00 -7.449737e+00 3.465000e+00
      vertex -1.237500e+00 -7.449737e+00 1.683000e+01
      vertex -1.237500e+00 -4.232267e+00 3.465000e+00
    endloop
  endfacet
  facet normal -1.000000e+00 0.000000e+00 0.000000e+00
    outer loop
      vertex -1.237500e+00 -4.232267e+00 3.465000e+00
      vertex -1.237500e+00 -7.449737e+00 1.683000e+01
      vertex -1.237500e+00 -4.232267e+00 1.683000e+01
    endloop
  endfacet
  facet normal 0.000000e+00 0.000000e+00 1.000000e+00
    outer loop
      vertex 1.237500e+00 -1.608735e+00 3.465000e+00
      vertex 5.692500e+00 -1.608735e+00 3.465000e+00
      vertex 1.237500e+00 1.608735e+00 3.465000e+00
    endloop
  endfacet
  facet normal 0.000000e+00 0.000000e+00 1.000000e+00
    outer loop
      vertex 1.237500e+00 1.608735e+00 3.465000e+00
      vertex 5.692500e+00 -1.608735e+00 3.465000e+00
      vertex 5.692500e+00 1.608735e+00 3.465000e+00
    endloop
  endfacet
  facet normal 0.000000e+00 1.000000e+00 0.000000e+00
    outer loop
      vertex 5.692500e+00 -1.608735e+00 1.683000e+01
      vertex 5.692500e+00 -1.608735e+00 3.465000e+00
      vertex 1.237500e+00 -1.608735e+00 1.683000e+01
    endloop
  endfacet
  facet normal 0.000000e+00 1.000000e+00 0.000000e+00
    outer loop
      vertex 1.237500e+00 -1.608735e+00 1.683000e+01
      vertex 5.692500e+00 -1.608735e+00 3.465000e+00
      vertex 1.237500e+00 -1.608735e+00 3.465000e+00
    endloop
  endfacet
  facet normal 0.000000e+00 -1.000000e+00 0.000000e+00
    outer loop
      vertex 1.237500e+00 1.608735e+00 1.683000e+01
      vertex 1.237500e+00 1.608735e+00 3.465000e+00
      vertex 5.692500e+00 1.608735e+00 1.683000e+01
    endloop
  endfacet
  facet normal 0.000000e+00 -1.000000e+00 0.000000e+00
    outer loop
      vertex 5.692500e+00 1.608735e+00 1.683000e+01
      vertex 1.237500e+00 1.608735e+00 3.465000e+00
      vertex 5.692500e+00 1.608735e+00 3.465000e+00
    endloop
  endfacet
  facet normal 1.000000e+00 0.000000e+00 0.000000e+00
    outer loop
      vertex 5.692500e+00 -7.449737e+00 1.683000e+01
      vertex 5.692500e+00 -1.336499e+01 1.683000e+01
      vertex 5.692500e+00 -7.449737e+00 3.465000e+00
    endloop
  endfacet
  facet normal 1.000000e+00 0.000000e+00 0.000000e+00
    outer loop
      vertex 5.692500e+00 -7.449737e+00 3.465000e+00
      vertex 5.692500e+00 -1.336499e+01 1.683000e+01
      vertex 5.692500e+00 -1.336499e+01 0.000000e+00
    endloop
  endfacet
  facet normal 1.000000e+00 0.000000e+00 0.000000e+00
    outer loop
      vertex 5.692500e+00 -4.232267e+00 3.465000e+00
      vertex 5.692500e+00 -1.336499e+01 0.000000e+00
      vertex 5.692500e+00 -1.608735e+00 3.465000e+00
    endloop
  endfacet
  facet normal 1.000000e+00 0.000000e+00 0.000000e+00
    outer loop
      vertex 5.692500e+00 -1.608735e+00 1.683000e+01
      vertex 5.692500e+00 -4.232267e+00 3.465000e+00
      vertex 5.692500e+00 -1.608735e+00 3.465000e+00
    endloop
  endfacet
  facet normal 1.000000e+00 0.000000e+00 0.000000e+00
    outer loop
      vertex 5.692500e+00 -1.608735e+00 1.683000e+01
      vertex 5.692500e+00 -4.232267e+00 1.683000e+01
      vertex 5.692500e+00 -4.232267e+00 3.465000e+00
    endloop
  endfacet
  facet normal 1.000000e+00 0.000000e+00 0.000000e+00
    outer loop
      vertex 5.692500e+00 -1.608735e+00 3.465000e+00
      vertex 5.692500e+00 -1.336499e+01 0.000000e+00
      vertex 5.692500e+00 1.608735e+00 3.465000e+00
    endloop
  endfacet
  facet normal 1.000000e+00 0.000000e+00 0.000000e+00
    outer loop
      vertex 5.692500e+00 1.608735e+00 3.465000e+00
      vertex 5.692500e+00 -1.336499e+01 0.000000e+00
      vertex 5.692500e+00 1.336499e+01 0.000000e+00
    endloop
  endfacet
  facet normal 1.000000e+00 0.000000e+00 0.000000e+00
    outer loop
      vertex 5.692500e+00 4.207492e+00 3.465000e+00
      vertex 5.692500e+00 1.336499e+01 0.000000e+00
      vertex 5.692500e+00 7.425000e+00 3.465000e+00
    endloop
  endfacet
  facet normal 1.000000e+00 0.000000e+00 0.000000e+00
    outer loop
      vertex 5.692500e+00 4.207492e+00 3.465000e+00
      vertex 5.692500e+00 1.608735e+00 3.465000e+00
      vertex 5.692500e+00 1.336499e+01 0.000000e+00
    endloop
  endfacet
  facet normal 1.000000e+00 0.000000e+00 0.000000e+00
    outer loop
      vertex 5.692500e+00 4.207492e+00 3.465000e+00
      vertex 5.692500e+00 4.207492e+00 1.683000e+01
      vertex 5.692500e+00 1.608735e+00 3.465000e+00
    endloop
  endfacet
  facet normal 1.000000e+00 0.000000e+00 0.000000e+00
    outer loop
      vertex 5.692500e+00 1.608735e+00 3.465000e+00
      vertex 5.692500e+00 4.207492e+00 1.683000e+01
      vertex 5.692500e+00 1.608735e+00 1.683000e+01
    endloop
  endfacet
  facet normal 1.000000e+00 0.000000e+00 0.000000e+00
    outer loop
      vertex 5.692500e+00 1.336499e+01 0.000000e+00
      vertex 5.692500e+00 1.336499e+01 1.683000e+01
      vertex 5.692500e+00 7.425000e+00 3.465000e+00
    endloop
  endfacet
  facet normal 1.000000e+00 0.000000e+00 0.000000e+00
    outer loop
      vertex 5.692500e+00 7.425000e+00 3.465000e+00
      vertex 5.692500e+00 1.336499e+01 1.683000e+01
      vertex 5.692500e+00 7.425000e+00 1.683000e+01
    endloop
  endfacet
  facet normal 1.000000e+00 0.000000e+00 0.000000e+00
    outer loop
      vertex 5.692500e+00 -4.232267e+00 3.465000e+00
      vertex 5.692500e+00 -7.449737e+00 3.465000e+00
      vertex 5.692500e+00 -1.336499e+01 0.000000e+00
    endloop
  endfacet
  facet normal 0.000000e+00 0.000000e+00 1.000000e+00
    outer loop
      vertex 5.692500e+00 7.425000e+00 3.465000e+00
      vertex 1.237500e+00 7.425000e+00 3.465000e+00
      vertex 5.692500e+00 4.207492e+00 3.465000e+00
    endloop
  endfacet
  facet normal 0.000000e+00 0.000000e+00 1.000000e+00
    outer loop
      vertex 5.692500e+00 4.207492e+00 3.465000e+00
      vertex 1.237500e+00 7.425000e+00 3.465000e+00
      vertex 1.237500e+00 4.207492e+00 3.465000e+00
    endloop
  endfacet
  facet normal 0.000000e+00 1.000000e+00 0.000000e+00
    outer loop
      vertex 1.237500e+00 4.207492e+00 3.465000e+00
      vertex 1.237500e+00 4.207492e+00 1.683000e+01
      vertex 5.692500e+00 4.207492e+00 3.465000e+00
    endloop
  endfacet
  facet normal 0.000000e+00 1.000000e+00 0.000000e+00
    outer loop
      vertex 5.692500e+00 4.207492e+00 3.465000e+00
      vertex 1.237500e+00 4.207492e+00 1.683000e+01
      vertex 5.692500e+00 4.207492e+00 1.683000e+01
    endloop
  endfacet
  facet normal 0.000000e+00 -1.000000e+00 0.000000e+00
    outer loop
      vertex 5.692500e+00 7.425000e+00 3.465000e+00
      vertex 5.692500e+00 7.425000e+00 1.683000e+01
      vertex 1.237500e+00 7.425000e+00 3.465000e+00
    endloop
  endfacet
  facet normal 0.000000e+00 -1.000000e+00 0.000000e+00
    outer loop
      vertex 1.237500e+00 7.425000e+00 3.465000e+00
      vertex 5.692500e+00 7.425000e+00 1.683000e+01
      vertex 1.237500e+00 7.425000e+00 1.683000e+01
    endloop
  endfacet
  facet normal 0.000000e+00 0.000000e+00 1.000000e+00
    outer loop
      vertex -1.237500e+00 -9.652485e+00 3.465000e+00
      vertex -3.217500e+00 -9.652485e+00 3.465000e+00
      vertex -1.237500e+00 -1.336499e+01 3.465000e+00
    endloop
  endfacet
  facet normal 0.000000e+00 0.000000e+00 1.000000e+00
    outer loop
      vertex -1.237500e+00 -1.336499e+01 3.465000e+00
      vertex -3.217500e+00 -9.652485e+00 3.465000e+00
      vertex -3.217500e+00 -1.336499e+01 3.465000e+00
    endloop
  endfacet
  facet normal 1.000000e+00 0.000000e+00 0.000000e+00
    outer loop
      vertex -3.217500e+00 -9.652485e+00 3.465000e+00
      vertex -3.217500e+00 -9.652485e+00 1.683000e+01
      vertex -3.217500e+00 -1.336499e+01 3.465000e+00
    endloop
  endfacet
  facet normal 1.000000e+00 0.000000e+00 0.000000e+00
    outer loop
      vertex -3.217500e+00 -1.336499e+01 3.465000e+00
      vertex -3.217500e+00 -9.652485e+00 1.683000e+01
      vertex -3.217500e+00 -1.336499e+01 1.683000e+01
    endloop
  endfacet
  facet normal 0.000000e+00 -1.000000e+00 0.000000e+00
    outer loop
      vertex -1.237500e+00 -9.652485e+00 3.465000e+00
      vertex -1.237500e+00 -9.652485e+00 1.683000e+01
      vertex -3.217500e+00 -9.652485e+00 3.465000e+00
    endloop
  endfacet
  facet normal 0.000000e+00 -1.000000e+00 0.000000e+00
    outer loop
      vertex -3.217500e+00 -9.652485e+00 3.465000e+00
      vertex -1.237500e+00 -9.652485e+00 1.683000e+01
      vertex -3.217500e+00 -9.652485e+00 1.683000e+01
    endloop
  endfacet
  facet normal -1.000000e+00 0.000000e+00 0.000000e+00
    outer loop
      vertex -1.237500e+00 -1.336499e+01 3.465000e+00
      vertex -1.237500e+00 -1.336499e+01 1.683000e+01
      vertex -1.237500e+00 -9.652485e+00 3.465000e+00
    endloop
  endfacet
  facet normal -1.000000e+00 0.000000e+00 0.000000e+00
    outer loop
      vertex -1.237500e+00 -9.652485e+00 3.465000e+00
      vertex -1.237500e+00 -1.336499e+01 1.683000e+01
      vertex -1.237500e+00 -9.652485e+00 1.683000e+01
    endloop
  endfacet
  facet normal 0.000000e+00 0.000000e+00 1.000000e+00
    outer loop
      vertex 3.217500e+00 -9.652485e+00 3.465000e+00
      vertex 1.237500e+00 -9.652485e+00 3.465000e+00
      vertex 3.217500e+00 -1.336499e+01 3.465000e+00
    endloop
  endfacet
  facet normal 0.000000e+00 0.000000e+00 1.000000e+00
    outer loop
      vertex 3.217500e+00 -1.336499e+01 3.465000e+00
      vertex 1.237500e+00 -9.652485e+00 3.465000e+00
      vertex 1.237500e+00 -1.336499e+01 3.465000e+00
    endloop
  endfacet
  facet normal 1.000000e+00 0.000000e+00 0.000000e+00
    outer loop
      vertex 1.237500e+00 -9.652485e+00 3.465000e+00
      vertex 1.237500e+00 -9.652485e+00 1.683000e+01
      vertex 1.237500e+00 -1.336499e+01 3.465000e+00
    endloop
  endfacet
  facet normal 1.000000e+00 0.000000e+00 0.000000e+00
    outer loop
      vertex 1.237500e+00 -1.336499e+01 3.465000e+00
      vertex 1.237500e+00 -9.652485e+00 1.683000e+01
      vertex 1.237500e+00 -1.336499e+01 1.683000e+01
    endloop
  endfacet
  facet normal -0.000000e+00 -1.000000e+00 -0.000000e+00
    outer loop
      vertex 3.217500e+00 -9.652485e+00 1.683000e+01
      vertex 2.227499e+00 -9.652485e+00 1.683000e+01
      vertex 3.217500e+00 -9.652485e+00 3.465000e+00
    endloop
  endfacet
  facet normal 0.000000e+00 -1.000000e+00 0.000000e+00
    outer loop
      vertex 3.217500e+00 -9.652485e+00 3.465000e+00
      vertex 2.227499e+00 -9.652485e+00 1.683000e+01
      vertex 1.237500e+00 -9.652485e+00 3.465000e+00
    endloop
  endfacet
  facet normal 0.000000e+00 -1.000000e+00 0.000000e+00
    outer loop
      vertex 1.237500e+00 -9.652485e+00 3.465000e+00
      vertex 2.227499e+00 -9.652485e+00 1.683000e+01
      vertex 1.237500e+00 -9.652485e+00 1.683000e+01
    endloop
  endfacet
  facet normal 0.000000e+00 -1.000000e+00 0.000000e+00
    outer loop
      vertex 1.237500e+00 -9.652485e+00 1.683000e+01
      vertex 2.227499e+00 -9.652485e+00 1.683000e+01
      vertex 2.227499e+00 -9.652485e+00 1.881000e+01
    endloop
  endfacet
  facet normal 0.000000e+00 -1.000000e+00 0.000000e+00
    outer loop
      vertex -2.475010e-01 -9.652485e+00 1.881000e+01
      vertex 1.237500e+00 -9.652485e+00 1.683000e+01
      vertex 2.227499e+00 -9.652485e+00 1.881000e+01
    endloop
  endfacet
  facet normal 0.000000e+00 -1.000000e+00 0.000000e+00
    outer loop
      vertex -2.475010e-01 -9.652485e+00 1.881000e+01
      vertex -2.475010e-01 -9.652485e+00 1.683000e+01
      vertex 1.237500e+00 -9.652485e+00 1.683000e+01
    endloop
  endfacet
  facet normal -1.000000e+00 0.000000e+00 0.000000e+00
    outer loop
      vertex 3.217500e+00 -1.336499e+01 3.465000e+00
      vertex 3.217500e+00 -1.336499e+01 1.683000e+01
      vertex 3.217500e+00 -9.652485e+00 3.465000e+00
    endloop
  endfacet
  facet normal -1.000000e+00 0.000000e+00 0.000000e+00
    outer loop
      vertex 3.217500e+00 -9.652485e+00 3.465000e+00
      vertex 3.217500e+00 -1.336499e+01 1.683000e+01
      vertex 3.217500e+00 -9.652485e+00 1.683000e+01
    endloop
  endfacet
  facet normal 0.000000e+00 0.000000e+00 -1.000000e+00
    outer loop
      vertex 5.692500e+00 -1.336499e+01 0.000000e+00
      vertex -5.692500e+00 -1.336499e+01 0.000000e+00
      vertex 5.692500e+00 1.336499e+01 0.000000e+00
    endloop
  endfacet
  facet normal 0.000000e+00 0.000000e+00 -1.000000e+00
    outer loop
      vertex 5.692500e+00 1.336499e+01 0.000000e+00
      vertex -5.692500e+00 -1.336499e+01 0.000000e+00
      vertex -5.692500e+00 1.336499e+01 0.000000e+00
    endloop
  endfacet
  facet normal -0.000000e+00 -1.000000e+00 -0.000000e+00
    outer loop
      vertex -3.217500e+00 -1.336499e+01 1.683000e+01
      vertex -5.692500e+00 -1.336499e+01 1.683000e+01
      vertex -3.217500e+00 -1.336499e+01 3.465000e+00
    endloop
  endfacet
  facet normal -0.000000e+00 -1.000000e+00 -0.000000e+00
    outer loop
      vertex -3.217500e+00 -1.336499e+01 3.465000e+00
      vertex -5.692500e+00 -1.336499e+01 1.683000e+01
      vertex -5.692500e+00 -1.336499e+01 0.000000e+00
    endloop
  endfacet
  facet normal 0.000000e+00 -1.000000e+00 0.000000e+00
    outer loop
      vertex -1.237500e+00 -1.336499e+01 3.465000e+00
      vertex -5.692500e+00 -1.336499e+01 0.000000e+00
      vertex 1.237500e+00 -1.336499e+01 3.465000e+00
    endloop
  endfacet
  facet normal 0.000000e+00 -1.000000e+00 0.000000e+00
    outer loop
      vertex 1.237500e+00 -1.336499e+01 1.683000e+01
      vertex -1.237500e+00 -1.336499e+01 3.465000e+00
      vertex 1.237500e+00 -1.336499e+01 3.465000e+00
    endloop
  endfacet
  facet normal -0.000000e+00 -1.000000e+00 -0.000000e+00
    outer loop
      vertex 1.237500e+00 -1.336499e+01 1.683000e+01
      vertex -1.237500e+00 -1.336499e+01 1.683000e+01
      vertex -1.237500e+00 -1.336499e+01 3.465000e+00
    endloop
  endfacet
  facet normal 0.000000e+00 -1.000000e+00 0.000000e+00
    outer loop
      vertex -5.692500e+00 -1.336499e+01 0.000000e+00
      vertex 5.692500e+00 -1.336499e+01 0.000000e+00
      vertex 1.237500e+00 -1.336499e+01 3.465000e+00
    endloop
  endfacet
  facet normal 0.000000e+00 -1.000000e+00 0.000000e+00
    outer loop
      vertex 1.237500e+00 -1.336499e+01 3.465000e+00
      vertex 5.692500e+00 -1.336499e+01 0.000000e+00
      vertex 3.217500e+00 -1.336499e+01 3.465000e+00
    endloop
  endfacet
  facet normal 0.000000e+00 -1.000000e+00 0.000000e+00
    outer loop
      vertex 3.217500e+00 -1.336499e+01 3.465000e+00
      vertex 5.692500e+00 -1.336499e+01 0.000000e+00
      vertex 5.692500e+00 -1.336499e+01 1.683000e+01
    endloop
  endfacet
  facet normal 0.000000e+00 -1.000000e+00 0.000000e+00
    outer loop
      vertex 3.217500e+00 -1.336499e+01 1.683000e+01
      vertex 3.217500e+00 -1.336499e+01 3.465000e+00
      vertex 5.692500e+00 -1.336499e+01 1.683000e+01
    endloop
  endfacet
  facet normal 0.000000e+00 -1.000000e+00 0.000000e+00
    outer loop
      vertex -1.237500e+00 -1.336499e+01 3.465000e+00
      vertex -3.217500e+00 -1.336499e+01 3.465000e+00
      vertex -5.692500e+00 -1.336499e+01 0.000000e+00
    endloop
  endfacet
  facet normal -1.000000e+00 0.000000e+00 0.000000e+00
    outer loop
      vertex -5.692500e+00 7.425000e+00 1.683000e+01
      vertex -5.692500e+00 1.336499e+01 1.683000e+01
      vertex -5.692500e+00 7.425000e+00 3.465000e+00
    endloop
  endfacet
  facet normal -1.000000e+00 0.000000e+00 0.000000e+00
    outer loop
      vertex -5.692500e+00 7.425000e+00 3.465000e+00
      vertex -5.692500e+00 1.336499e+01 1.683000e+01
      vertex -5.692500e+00 1.336499e+01 0.000000e+00
    endloop
  endfacet
  facet normal -1.000000e+00 -0.000000e+00 -0.000000e+00
    outer loop
      vertex -5.692500e+00 4.207492e+00 3.465000e+00
      vertex -5.692500e+00 1.336499e+01 0.000000e+00
      vertex -5.692500e+00 -1.336499e+01 0.000000e+00
    endloop
  endfacet
  facet normal -1.000000e+00 0.000000e+00 0.000000e+00
    outer loop
      vertex -5.692500e+00 -4.232267e+00 3.465000e+00
      vertex -5.692500e+00 -1.336499e+01 0.000000e+00
      vertex -5.692500e+00 -7.449737e+00 3.465000e+00
    endloop
  endfacet
  facet normal -1.000000e+00 0.000000e+00 0.000000e+00
    outer loop
      vertex -5.692500e+00 -4.232267e+00 3.465000e+00
      vertex -5.692500e+00 4.207492e+00 3.465000e+00
      vertex -5.692500e+00 -1.336499e+01 0.000000e+00
    endloop
  endfacet
  facet normal -1.000000e+00 0.000000e+00 0.000000e+00
    outer loop
      vertex -5.692500e+00 -4.232267e+00 3.465000e+00
      vertex -5.692500e+00 -4.232267e+00 1.683000e+01
      vertex -5.692500e+00 4.207492e+00 3.465000e+00
    endloop
  endfacet
  facet normal -1.000000e+00 0.000000e+00 0.000000e+00
    outer loop
      vertex -5.692500e+00 4.207492e+00 3.465000e+00
      vertex -5.692500e+00 -4.232267e+00 1.683000e+01
      vertex -5.692500e+00 4.207492e+00 1.683000e+01
    endloop
  endfacet
  facet normal -1.000000e+00 -0.000000e+00 -0.000000e+00
    outer loop
      vertex -5.692500e+00 7.425000e+00 3.465000e+00
      vertex -5.692500e+00 1.336499e+01 0.000000e+00
      vertex -5.692500e+00 4.207492e+00 3.465000e+00
    endloop
  endfacet
  facet normal -1.000000e+00 0.000000e+00 0.000000e+00
    outer loop
      vertex -5.692500e+00 -1.336499e+01 0.000000e+00
      vertex -5.692500e+00 -1.336499e+01 1.683000e+01
      vertex -5.692500e+00 -7.449737e+00 3.465000e+00
    endloop
  endfacet
  facet normal -1.000000e+00 0.000000e+00 0.000000e+00
    outer loop
      vertex -5.692500e+00 -7.449737e+00 3.465000e+00
      vertex -5.692500e+00 -1.336499e+01 1.683000e+01
      vertex -5.692500e+00 -7.449737e+00 1.683000e+01
    endloop
  endfacet
endsolid Default
